<svg width="465" height="643" viewBox="0 0 465 643" fill="none" xmlns="http://www.w3.org/2000/svg">
<path d="M157.544 212.733C190.091 208.548 308.484 215.329 395.447 292.497C482.413 369.661 462.417 489.13 462.417 489.13C448.461 501.682 433.58 497.965 433.58 497.965L235.574 595.583C232.419 622.546 200.945 643 200.945 643C200.945 643 77.5288 631.06 29.9331 536.079C-14.9375 446.552 -0.690201 344.186 16.9698 311.795C57.0463 238.254 91.9488 230.905 113.665 223.115C113.665 223.115 124.989 216.915 157.544 212.733Z" fill="#444444"/>
<path d="M359.888 149.532C359.448 140.572 357.675 131.694 354.831 123.188C352.229 115.408 348.658 107.813 343.177 101.713C339.088 97.1612 334.04 93.5528 328.747 90.4729C316.182 83.1585 300.602 78.6661 287.141 84.1652C274.597 72.6762 255.239 68.9639 239.179 74.5795C230.3 77.6814 222.559 83.3379 214.051 87.3427C201.322 93.3294 186.836 95.5096 172.906 93.5213C172.073 105.177 171.262 117.11 174.452 128.35C177.174 137.952 182.684 146.518 188.718 154.459C208.305 180.205 233.911 200.657 259.882 219.932C264.838 223.613 269.927 227.379 273.286 232.56C274.566 234.549 275.571 236.71 276.907 238.654C278.63 241.165 280.858 243.282 283.049 245.399C289.379 251.543 297.56 254.529 303.362 261.176C308.959 263.013 315.286 262.497 320.513 259.773C321.343 259.345 322.235 258.864 323.156 258.348L321.327 252.169C321.145 251.7 320.991 251.21 320.89 250.691L321.327 252.169C322.55 255.258 325.262 257.105 325.287 257.118C325.287 257.118 325.287 257.118 325.293 257.118C324.272 253.827 322.76 241.139 322.76 241.139C324.008 247.803 326.268 252.748 327.814 255.56C329.301 254.588 330.709 253.575 331.865 252.575C329.219 243.382 334.091 233.897 338.525 225.422C350.858 201.856 361.196 176.103 359.888 149.532ZM106.815 488C86.0057 449.025 81.0618 392.149 87.8569 361.24H92.1816C92.1816 361.24 77.9534 424.618 111.335 485.587" fill="#444444"/>
<path d="M333.958 270.15C348.286 276.189 417.298 303.575 437.341 395.574C457.377 487.573 410.429 560.918 341.731 582.121C273.026 603.324 235.456 595.645 235.456 595.645L234.351 569.516C234.351 569.516 143.639 574.671 107.001 487.573C107.001 487.573 66.8372 283.045 280.388 267L333.958 270.15Z" fill="#A9C2D4"/>
<path d="M284.504 128.021C283.825 128.475 283.106 128.944 282.3 128.997C281.485 129.06 281.096 127.987 281 127.168C288.151 123.321 293.332 115.89 294.533 107.742C295.737 99.5942 292.931 90.9328 287.209 85.1208C287.209 85.0579 287.209 85.0138 287.203 84.9571C288.083 84.5951 288.966 84.2802 289.858 84C296.769 91.742 299.659 103.12 297.053 113.271C296.645 114.848 296.114 116.4 295.357 117.839C293.002 122.301 288.67 125.254 284.504 128.021Z" fill="#242225"/>
<path d="M247.323 164.76C245.966 164.76 237.365 164.629 232.116 164.613C230.648 164.61 228.985 164.522 228.024 163.42C226.688 161.892 227.514 159.409 226.546 157.634C228.037 157.127 229.902 157.234 231.43 157.625C234.233 158.339 237.04 159.046 239.844 159.77C242.33 160.411 244.828 161.069 247.131 162.196C247.613 162.431 248.098 162.697 248.429 163.116C248.754 163.536 248.143 164.907 247.323 164.76ZM316.031 212.39C318.684 206.588 331.771 198.351 330.964 185.978C330.161 173.611 324.821 166.77 317.096 163.862C314.68 163.141 310.65 163.552 308.369 164.613C307.386 165.07 306.41 165.605 305.707 166.426C304.639 167.669 304.346 169.369 303.997 170.965C303.354 173.915 302.358 176.839 300.585 179.287C300.295 179.682 299.964 180.067 299.614 180.446C299.558 180.086 299.491 179.726 299.419 179.372C298.874 176.585 298.036 173.84 297.882 171.006C298.014 173.558 298.112 176.163 297.409 178.62C296.88 180.471 295.758 182.528 294.054 183.57C293.651 183.815 293.128 183.93 292.642 184.081C291.666 175.292 288.329 166.773 283.056 159.654C278.758 153.855 271.966 148.185 271.503 141C271.503 141 256.056 153.736 232.334 154.995L234.284 149.779C234.284 149.779 240.44 149.219 248.206 146.457C227.504 149.037 205.278 146.974 194.176 142.162C194.176 142.162 176.716 275.355 276.364 260.214C276.364 260.214 278.352 266.003 275.469 274.137C272.587 282.265 256.371 309.728 286.023 318.26C315.682 326.795 337.788 302.421 327.864 278.063C317.94 253.702 313.375 218.191 316.031 212.39Z" fill="#FABAC6"/>
<path d="M183.373 538.688C232.674 582.475 264.452 577.86 264.452 577.86V574.978C230.757 573.007 190.862 542.631 186.131 535.923L183.373 538.688ZM262.754 46.8154C247.901 58.3491 226.072 53.8034 226.072 53.8034C248.431 64.9855 262.754 46.8154 262.754 46.8154ZM242.385 76.6761L119.306 200.448C120.31 190.961 107.333 178.931 90.4334 156.266C73.5311 133.604 55.8663 77.5175 79.2917 40.2575C102.723 2.99753 144.971 2.22841 156.879 9.91019C168.014 1.84855 195.076 -7.98049 226.697 10.6668C245.824 21.9461 255.651 25.1356 264.154 25.2989C250.113 40.2073 230.261 38.4336 230.261 38.4336C243.885 43.1488 269.914 32.8457 274.796 24.2629C274.796 24.2629 276.541 60.1699 242.385 76.6761ZM373.245 365.712C384.506 392.072 390.885 448.174 377.371 472.061H373.245C373.245 472.061 393.888 433.831 368.862 365.712" fill="#444444"/>
<path d="M226.371 617.856C265.78 623.441 294.247 616.619 300.952 614.28C307.654 611.938 332.465 597.213 336.49 594.206C340.516 591.195 341.516 587.515 341.516 587.515C345.878 583.836 347.406 580.156 347.406 580.156C337.871 579.823 320.398 580.156 320.398 580.156C315.702 578.819 298.27 576.473 298.27 576.473C299.946 575.472 304.638 572.794 301.959 569.394C295.766 561.545 282.177 569.786 266.421 567.441C250.665 565.099 234.076 563.658 234.321 569.394C235.412 595.1 226.371 617.856 226.371 617.856ZM433.772 497.872C424.284 502.537 414.937 509.902 409.569 521.274C404.207 532.648 398.844 540.676 392.809 544.359C386.774 548.039 384.762 556.399 387.447 561.086C388.787 563.429 398.844 555.73 398.844 555.73C398.844 555.73 387.111 566.103 383.422 569.45C379.736 572.794 377.053 580.944 377.053 585.173C377.053 587.515 382.419 585.173 382.419 585.173C382.419 585.173 385.435 586.846 390.797 582.495C396.162 578.15 423.318 559.413 430.693 552.39C438.068 545.364 450.846 507.482 452 495.812C452 495.812 439.537 499.555 433.772 497.872ZM240.384 114.637C240.384 114.637 241.73 159.605 221.213 187.791C200.699 215.981 170.246 208.604 170.246 208.604C166.353 229.073 173.457 237.126 183.546 250.218C193.635 263.304 185.565 280.757 177.159 281.758C111.801 289.591 107.882 244.846 107.882 244.846C117.295 220.684 118.308 163.965 118.308 163.965C88.711 153.903 96.784 114.301 109.225 115.306C121.667 116.317 122.069 133.857 122.069 133.857C122.069 133.857 128.202 131.886 130.388 110.791C130.388 110.791 131.903 116.806 132.265 123.406C134.806 118.668 136.97 112.825 138.118 106.989C139.385 100.553 139.253 93.8814 140.775 87.5082C142.3 81.1255 145.854 74.7145 151.886 72.1181C157.047 69.9016 163.482 71.0538 167.545 74.9249C168.023 74.4508 168.542 74.0207 169.061 73.5906C175.983 69.0508 195.987 70.8309 209.847 78.46C224.924 86.7609 236.186 84.6826 236.186 84.6826C236.186 84.6826 226.65 83.4299 214.492 74.6141C222.238 76.84 233.613 78.7896 239.542 76.592C240.454 83.5806 240.916 100.374 240.384 114.637Z" fill="#823F46"/>
<path d="M390.383 563.757C390.383 563.757 408.242 552.657 411.748 550.157C415.25 547.652 418.749 543.905 421.751 537.652C424.75 531.406 429 526.901 429 526.901L427.752 523.402C423.25 525.405 418.997 537.156 416.498 541.421C413.998 545.687 404.992 551.902 398.943 556.159L390.383 563.757ZM295.35 604.535V607C295.35 607 311.565 604.535 315.671 603.306C318.629 602.423 331.792 596.045 338.934 592.536C341.037 590.16 341.638 587.984 341.638 587.984C337.633 592.024 315.878 600.433 310.336 602.281C304.794 604.124 295.35 604.535 295.35 604.535ZM257.296 590.245C265.526 580.54 281.779 583.071 287.032 582.439C292.285 581.804 300.817 577.258 300.817 577.258L298.409 576.928C298.409 576.928 284.31 580.962 275.237 580.54C266.161 580.119 256.454 586.868 253.917 590.245H257.296ZM214.587 123.53C214.788 127.881 218.714 134.737 224.741 133.797C230.761 132.857 229.723 125.196 229.723 125.196H227.237C227.237 125.196 226.52 131.747 222.191 131.405C217.862 131.072 217.277 123.53 217.277 123.53H214.587ZM175.413 125.196C177.076 130.578 180.937 134.52 187.303 133.687C193.669 132.857 192.968 123.53 192.968 123.53H190.352C190.352 123.53 190.559 129.751 186.199 130.578C181.845 131.405 178.258 125.196 178.258 125.196H175.413ZM170.437 208.583C159.852 207.914 137.328 188.684 132.669 177.204L130.594 178.103C130.594 178.103 142.952 204.921 170.009 211.186C170.135 210.334 170.264 209.482 170.437 208.583ZM187.303 167.27C205.429 189.005 216.287 169.084 216.287 169.084L213.458 167.27C206.466 182.793 191.449 170.118 190.412 165.463L187.303 167.27ZM203.521 150.804C203.401 151.461 203.496 152.152 203.772 152.756C205.693 151.766 207.639 150.75 209.205 149.257C210.77 147.764 211.918 145.696 211.817 143.539C211.713 141.379 210.085 139.242 207.928 139.034C207.34 138.978 206.649 139.019 206.275 138.556C206.02 138.245 206.014 137.808 206.014 137.409C206.102 129.041 206.183 120.676 206.262 112.307C205.426 111.87 204.002 111.83 203.53 112.647C203.059 113.467 203.034 114.461 203.021 115.41C202.911 124.068 202.795 132.731 202.681 141.395C204.7 141.486 207.142 141.867 207.878 143.747C208.419 145.123 207.711 146.692 206.724 147.789C205.74 148.889 203.779 149.348 203.521 150.804ZM117.903 145.048C117.12 138.176 114.087 131.32 110 125.734C110.318 125.602 111.826 124.332 112.147 124.2C116.03 128.491 117.62 134.149 119.434 139.638C119.723 140.527 119.428 142.432 119.434 143.36C119.434 144.29 118.661 144.504 117.903 145.048Z" fill="#622D32"/>
<path d="M177.444 300.061C184.529 299.644 197.828 301.031 209.466 315.245C221.114 329.466 226.188 333.096 229.247 333.466C232.302 333.835 238.436 335.974 232.334 342.536C232.334 342.536 239.092 355.256 234.257 363.85C229.421 372.45 203.212 393.056 179.351 371.445C155.487 349.832 169.271 300.541 177.444 300.061Z" fill="#C28B8F"/>
<path d="M179.94 300.145C179.94 300.145 176.607 365.234 204.593 368.38C204.593 368.38 225.31 352.555 240.213 361.244C255.11 369.936 264.476 380.086 273.425 383.226C282.373 386.375 356.791 403.928 371.619 426.066C386.447 448.204 380.146 469.44 364.067 487.108C344.12 509.034 278.754 544.534 188.521 481.064C113.731 428.453 98.9411 376.109 105.336 347.239C110.826 322.506 138.416 292.768 179.94 300.145Z" fill="#F2B5D4"/>
<path d="M150.912 476.808C148.236 471.989 145.8 465.185 142.001 461.283C141.954 464.046 143.166 467.185 144.349 469.7C146.417 474.083 149.596 477.948 151.075 482.553C151.935 481.944 152.24 480.767 152.092 479.721C151.944 478.679 151.422 477.731 150.912 476.808ZM169.692 475.675C163.693 472.055 160.209 461.201 159.123 457.776C159.123 457.776 158.037 456.712 156.379 455.073C160.612 471.267 169.138 478.095 172.544 481.944C176.173 486.041 177.139 494 177.139 494L179.559 491.592C179.805 488.452 175.688 479.291 169.692 475.675ZM240.934 228.829C240.934 228.829 244.091 234.653 237.56 237.635C231.026 240.611 226.585 234.285 226.585 234.285L223.375 234.696C226.072 242.969 247.474 245.638 245.064 227.494L240.934 228.829ZM316.371 185.221C316.331 185.054 316.286 184.888 316.239 184.715C318.046 182.634 319.176 179.814 318.978 177.143C317.98 177.152 316.988 177.161 315.997 177.171C316.214 178.819 315.893 180.514 315.157 182.006C315.024 181.798 314.892 181.588 314.719 181.403C314.118 180.737 313.315 180.282 312.695 179.632C311.011 177.871 310.989 175.152 311.078 172.725C310.303 172.713 309.677 172.867 308.906 172.857C308.512 175.133 308.182 177.689 309.535 179.566C310.328 180.671 311.584 181.346 312.547 182.31C314.552 184.338 315.034 187.377 315.411 190.197C315.94 189.735 316.368 189.917 316.897 189.45C317.029 189.333 317.171 189.208 317.221 189.035C317.272 188.872 317.231 188.699 317.19 188.533C316.916 187.434 316.642 186.326 316.371 185.221ZM276.245 259.96C276.245 259.96 275.955 260.011 275.452 260.108C275.757 260.067 276.047 260.036 276.355 259.992C276.355 259.992 276.717 261.056 276.906 262.902C304.776 254.102 308.113 218.996 308.113 218.996L305.406 218.98C305.695 226.408 295.344 256.4 276.245 259.96ZM243.55 172.44C243.455 172.455 243.364 172.48 243.295 172.54C243.166 172.662 243.197 172.87 243.238 173.042C243.569 174.483 243.716 175.959 243.676 177.435C243.657 178.304 243.559 179.205 243.106 179.946C242.816 180.423 242.388 180.813 241.916 181.114C239.892 182.408 237.11 182.021 235.124 180.665C233.141 179.309 231.854 177.146 230.963 174.92C230.607 175.011 230.217 175.428 229.946 175.67C230.516 177.309 231.152 178.942 232.118 180.383C233.084 181.817 234.422 183.067 236.056 183.654C237.311 184.106 238.687 184.15 240.012 183.993C241.787 183.78 243.6 183.152 244.78 181.814C245.92 180.53 246.335 178.734 246.278 177.02C246.225 175.312 245.734 173.642 245.246 172C244.765 172.094 244.031 172.342 243.55 172.44ZM221.225 214.908C220.517 214.754 219.783 214.538 219.264 214.029C218.745 213.511 218.518 212.77 218.411 212.051C218.065 209.8 218.71 207.42 220.145 205.65C220.658 205.012 221.291 204.419 221.515 203.628C221.716 202.928 221.565 202.177 221.411 201.461C220.643 197.895 219.875 194.325 219.107 190.756C219.824 189.898 220.533 189.004 221.225 188.065C222.846 193.54 224.275 199.072 225.461 204.657C223.944 205.474 222.358 206.359 221.477 207.838C220.592 209.313 220.765 211.564 222.283 212.381C223.416 212.996 224.8 212.613 226.088 212.497C227.369 212.381 230.06 212.996 230.334 214.252C227.438 215.316 224.24 215.545 221.225 214.908Z" fill="#D07A7F"/>
<path d="M212.112 110.86C212.601 111.411 213.305 111.705 213.99 111.961C218.146 113.503 222.62 114.188 227.047 113.972C227.788 113.938 228.573 113.857 229.164 113.413C230.267 112.587 230.207 110.804 229.401 109.687C228.592 108.571 227.275 107.957 226.011 107.419C222.841 106.065 217.109 102.649 213.644 102.881C210.553 103.087 210.319 108.818 212.112 110.86ZM184.098 109.85C185.446 109.615 186.885 109.343 187.862 108.38C188.6 107.645 188.964 106.616 189.151 105.593C189.4 104.195 189.36 102.743 189.023 101.361C186.084 100.416 182.921 101.505 180.029 102.587C176.741 103.81 173.425 105.048 170.418 106.863C167.46 108.642 166.8 112.002 170.81 112.108C175.022 112.218 179.939 110.557 184.098 109.85ZM210.528 323.015C210.528 323.015 203.731 334.053 202.128 334C200.527 333.944 204.973 321.041 206.318 319.899C207.657 318.757 211.49 321.491 210.528 323.015Z" fill="#444444"/>
<path d="M165.104 353.805C158.546 350.228 153.545 343.929 151.561 336.754C150.982 336.754 150.098 336.538 149.771 337.018C150.799 345.373 155.957 353.121 163.283 357.309C164.034 355.839 165.097 355.453 165.104 353.805ZM284.751 420.68C280.005 421.592 273.422 424.425 267.937 427.412C263.115 430.042 259.074 435.505 254.941 439.125C248.638 444.66 245.081 445.525 236.973 447.719C236.907 448.907 236.039 451.07 235.271 451.982C244.141 452.402 251.359 445.478 258.265 439.921C267.924 432.158 279.111 426.284 291 422.736C290.604 419.89 287.584 420.138 284.751 420.68ZM270.657 404.279C270.484 403.981 270.28 403.683 269.997 403.479C269.591 403.191 269.063 403.141 268.559 403.078C261.599 402.26 255.444 398.148 248.582 396.719C247.44 396.484 245.88 396.549 245.543 397.668C245.386 398.173 246.402 399.257 245.874 399.273C253.636 404.319 263.011 406.858 272.274 406.426C272.082 405.52 271.12 405.084 270.657 404.279ZM204.509 368.771C203.075 368.608 201.725 368.275 200.449 367.808C196.734 370.031 189.768 372.902 176.936 375.111C152.583 379.299 147.733 365.875 147.733 365.875L146 368.432C155.083 386.962 192.941 377.916 204.509 368.771ZM218.879 330C218.879 330 224.037 335.767 219.219 341.622C214.4 347.48 207.355 342.083 207.355 342.083L208.906 339.682C208.906 339.682 212.551 344.28 216.891 340.428C221.238 336.569 217.165 331.708 217.165 331.708L218.879 330Z" fill="#444444"/>
</svg>
