<svg width="226" height="46" viewBox="0 0 226 46" fill="none" xmlns="http://www.w3.org/2000/svg">
<path d="M13.14 37.144C11.268 37.144 9.588 36.712 8.1 35.848C6.612 34.96 5.436 33.76 4.572 32.248C3.708 30.736 3.264 29.032 3.24 27.136V10.72C3.24 10.168 3.408 9.724 3.744 9.388C4.104 9.052 4.548 8.884 5.076 8.884C5.628 8.884 6.072 9.052 6.408 9.388C6.744 9.724 6.912 10.168 6.912 10.72V20.44C7.752 19.432 8.76 18.64 9.936 18.064C11.136 17.464 12.444 17.164 13.86 17.164C15.612 17.164 17.184 17.608 18.576 18.496C19.968 19.36 21.06 20.548 21.852 22.06C22.668 23.548 23.076 25.24 23.076 27.136C23.076 29.032 22.632 30.736 21.744 32.248C20.88 33.76 19.704 34.96 18.216 35.848C16.728 36.712 15.036 37.144 13.14 37.144ZM13.14 33.904C14.364 33.904 15.456 33.616 16.416 33.04C17.376 32.44 18.132 31.624 18.684 30.592C19.26 29.56 19.548 28.408 19.548 27.136C19.548 25.84 19.26 24.688 18.684 23.68C18.132 22.672 17.376 21.88 16.416 21.304C15.456 20.704 14.364 20.404 13.14 20.404C11.94 20.404 10.848 20.704 9.864 21.304C8.904 21.88 8.148 22.672 7.596 23.68C7.044 24.688 6.768 25.84 6.768 27.136C6.768 28.408 7.044 29.56 7.596 30.592C8.148 31.624 8.904 32.44 9.864 33.04C10.848 33.616 11.94 33.904 13.14 33.904ZM36.7605 37.144C35.0085 37.144 33.4365 36.712 32.0445 35.848C30.6525 34.96 29.5485 33.772 28.7325 32.284C27.9405 30.772 27.5445 29.068 27.5445 27.172C27.5445 25.276 27.9765 23.572 28.8405 22.06C29.7285 20.548 30.9165 19.36 32.4045 18.496C33.9165 17.608 35.6085 17.164 37.4805 17.164C39.3525 17.164 41.0325 17.608 42.5205 18.496C44.0085 19.36 45.1845 20.548 46.0485 22.06C46.9365 23.572 47.3805 25.276 47.3805 27.172H45.9765C45.9765 29.068 45.5685 30.772 44.7525 32.284C43.9605 33.772 42.8685 34.96 41.4765 35.848C40.0845 36.712 38.5125 37.144 36.7605 37.144ZM37.4805 33.904C38.7045 33.904 39.7965 33.616 40.7565 33.04C41.7165 32.44 42.4725 31.636 43.0245 30.628C43.5765 29.596 43.8525 28.444 43.8525 27.172C43.8525 25.876 43.5765 24.724 43.0245 23.716C42.4725 22.684 41.7165 21.88 40.7565 21.304C39.7965 20.704 38.7045 20.404 37.4805 20.404C36.2805 20.404 35.1885 20.704 34.2045 21.304C33.2445 21.88 32.4765 22.684 31.9005 23.716C31.3485 24.724 31.0725 25.876 31.0725 27.172C31.0725 28.444 31.3485 29.596 31.9005 30.628C32.4765 31.636 33.2445 32.44 34.2045 33.04C35.1885 33.616 36.2805 33.904 37.4805 33.904ZM45.5445 37.036C45.0165 37.036 44.5725 36.868 44.2125 36.532C43.8765 36.172 43.7085 35.728 43.7085 35.2V29.692L44.3925 25.876L47.3805 27.172V35.2C47.3805 35.728 47.2005 36.172 46.8405 36.532C46.5045 36.868 46.0725 37.036 45.5445 37.036ZM62.7455 37.144C60.8735 37.144 59.1935 36.712 57.7055 35.848C56.2175 34.96 55.0415 33.76 54.1775 32.248C53.3135 30.736 52.8695 29.032 52.8455 27.136V10.72C52.8455 10.168 53.0135 9.724 53.3495 9.388C53.7095 9.052 54.1535 8.884 54.6815 8.884C55.2335 8.884 55.6775 9.052 56.0135 9.388C56.3495 9.724 56.5175 10.168 56.5175 10.72V20.44C57.3575 19.432 58.3655 18.64 59.5415 18.064C60.7415 17.464 62.0495 17.164 63.4655 17.164C65.2175 17.164 66.7895 17.608 68.1815 18.496C69.5735 19.36 70.6655 20.548 71.4575 22.06C72.2735 23.548 72.6815 25.24 72.6815 27.136C72.6815 29.032 72.2375 30.736 71.3495 32.248C70.4855 33.76 69.3095 34.96 67.8215 35.848C66.3335 36.712 64.6415 37.144 62.7455 37.144ZM62.7455 33.904C63.9695 33.904 65.0615 33.616 66.0215 33.04C66.9815 32.44 67.7375 31.624 68.2895 30.592C68.8655 29.56 69.1535 28.408 69.1535 27.136C69.1535 25.84 68.8655 24.688 68.2895 23.68C67.7375 22.672 66.9815 21.88 66.0215 21.304C65.0615 20.704 63.9695 20.404 62.7455 20.404C61.5455 20.404 60.4535 20.704 59.4695 21.304C58.5095 21.88 57.7535 22.672 57.2015 23.68C56.6495 24.688 56.3735 25.84 56.3735 27.136C56.3735 28.408 56.6495 29.56 57.2015 30.592C57.7535 31.624 58.5095 32.44 59.4695 33.04C60.4535 33.616 61.5455 33.904 62.7455 33.904ZM80.5961 45.64C80.3561 45.64 80.0681 45.568 79.7321 45.424C78.6761 44.944 78.3881 44.188 78.8681 43.156L89.8481 18.352C90.3281 17.344 91.0841 17.056 92.1161 17.488C93.1961 17.944 93.4961 18.7 93.0161 19.756L82.0001 44.524C81.7121 45.268 81.2441 45.64 80.5961 45.64ZM84.8441 36.208C84.3881 36.4 83.9561 36.424 83.5481 36.28C83.1641 36.112 82.8521 35.8 82.6121 35.344L74.3681 19.684C74.1281 19.228 74.0921 18.796 74.2601 18.388C74.4521 17.956 74.7761 17.644 75.2321 17.452C75.6881 17.26 76.1201 17.248 76.5281 17.416C76.9361 17.56 77.2481 17.86 77.4641 18.316L85.3481 33.976C85.5881 34.432 85.6721 34.876 85.6001 35.308C85.5521 35.716 85.3001 36.016 84.8441 36.208Z" fill="#C97AB7"/>
<path d="M105.826 37.272C104.171 37.272 102.698 36.9887 101.406 36.422C100.114 35.8553 99.094 35.0847 98.346 34.11C97.598 33.1127 97.1787 32.002 97.088 30.778H102.834C102.902 31.4353 103.208 31.968 103.752 32.376C104.296 32.784 104.965 32.988 105.758 32.988C106.483 32.988 107.039 32.852 107.424 32.58C107.832 32.2853 108.036 31.9113 108.036 31.458C108.036 30.914 107.753 30.5173 107.186 30.268C106.619 29.996 105.701 29.7013 104.432 29.384C103.072 29.0667 101.939 28.738 101.032 28.398C100.125 28.0353 99.3433 27.48 98.686 26.732C98.0287 25.9613 97.7 24.93 97.7 23.638C97.7 22.55 97.9947 21.564 98.584 20.68C99.196 19.7733 100.08 19.0593 101.236 18.538C102.415 18.0167 103.809 17.756 105.418 17.756C107.798 17.756 109.668 18.3453 111.028 19.524C112.411 20.7027 113.204 22.2667 113.408 24.216H108.036C107.945 23.5587 107.651 23.0373 107.152 22.652C106.676 22.2667 106.041 22.074 105.248 22.074C104.568 22.074 104.047 22.21 103.684 22.482C103.321 22.7313 103.14 23.0827 103.14 23.536C103.14 24.08 103.423 24.488 103.99 24.76C104.579 25.032 105.486 25.304 106.71 25.576C108.115 25.9387 109.26 26.3013 110.144 26.664C111.028 27.004 111.799 27.5707 112.456 28.364C113.136 29.1347 113.487 30.1773 113.51 31.492C113.51 32.6027 113.193 33.6 112.558 34.484C111.946 35.3453 111.051 36.0253 109.872 36.524C108.716 37.0227 107.367 37.272 105.826 37.272ZM128.729 17.824C130.905 17.824 132.65 18.5493 133.965 20C135.28 21.428 135.937 23.4 135.937 25.916V37H130.157V26.698C130.157 25.4287 129.828 24.4427 129.171 23.74C128.514 23.0373 127.63 22.686 126.519 22.686C125.408 22.686 124.524 23.0373 123.867 23.74C123.21 24.4427 122.881 25.4287 122.881 26.698V37H117.067V11.84H122.881V20.578C123.47 19.7393 124.275 19.0707 125.295 18.572C126.315 18.0733 127.46 17.824 128.729 17.824ZM148.613 37.272C146.754 37.272 145.077 36.8753 143.581 36.082C142.108 35.2887 140.94 34.1553 140.079 32.682C139.24 31.2087 138.821 29.486 138.821 27.514C138.821 25.5647 139.252 23.8533 140.113 22.38C140.974 20.884 142.153 19.7393 143.649 18.946C145.145 18.1527 146.822 17.756 148.681 17.756C150.54 17.756 152.217 18.1527 153.713 18.946C155.209 19.7393 156.388 20.884 157.249 22.38C158.11 23.8533 158.541 25.5647 158.541 27.514C158.541 29.4633 158.099 31.186 157.215 32.682C156.354 34.1553 155.164 35.2887 153.645 36.082C152.149 36.8753 150.472 37.272 148.613 37.272ZM148.613 32.24C149.724 32.24 150.664 31.832 151.435 31.016C152.228 30.2 152.625 29.0327 152.625 27.514C152.625 25.9953 152.24 24.828 151.469 24.012C150.721 23.196 149.792 22.788 148.681 22.788C147.548 22.788 146.607 23.196 145.859 24.012C145.111 24.8053 144.737 25.9727 144.737 27.514C144.737 29.0327 145.1 30.2 145.825 31.016C146.573 31.832 147.502 32.24 148.613 32.24ZM188.86 18.028L183.726 37H177.3L174.308 24.692L171.214 37H164.822L159.654 18.028H165.468L168.154 31.594L171.35 18.028H177.504L180.734 31.526L183.386 18.028H188.86ZM208.961 27.208C208.961 27.752 208.927 28.3187 208.859 28.908H195.701C195.791 30.0867 196.165 30.9933 196.823 31.628C197.503 32.24 198.33 32.546 199.305 32.546C200.755 32.546 201.764 31.934 202.331 30.71H208.519C208.201 31.9567 207.623 33.0787 206.785 34.076C205.969 35.0733 204.937 35.8553 203.691 36.422C202.444 36.9887 201.05 37.272 199.509 37.272C197.65 37.272 195.995 36.8753 194.545 36.082C193.094 35.2887 191.961 34.1553 191.145 32.682C190.329 31.2087 189.921 29.486 189.921 27.514C189.921 25.542 190.317 23.8193 191.111 22.346C191.927 20.8727 193.06 19.7393 194.511 18.946C195.961 18.1527 197.627 17.756 199.509 17.756C201.345 17.756 202.977 18.1413 204.405 18.912C205.833 19.6827 206.943 20.782 207.737 22.21C208.553 23.638 208.961 25.304 208.961 27.208ZM203.011 25.678C203.011 24.6807 202.671 23.8873 201.991 23.298C201.311 22.7087 200.461 22.414 199.441 22.414C198.466 22.414 197.639 22.6973 196.959 23.264C196.301 23.8307 195.893 24.6353 195.735 25.678H203.011ZM217.842 21.19C218.522 20.1473 219.372 19.3313 220.392 18.742C221.412 18.13 222.545 17.824 223.792 17.824V23.978H222.194C220.743 23.978 219.655 24.2953 218.93 24.93C218.205 25.542 217.842 26.63 217.842 28.194V37H212.028V18.028H217.842V21.19Z" fill="#7A9AC9"/>
</svg>
